<svg width="314" height="136" viewBox="0 0 314 136" fill="none" xmlns="http://www.w3.org/2000/svg">
<path d="M62.455 44.648L69.175 55.912L23.607 83.688V75.624L69.175 103.4L62.455 114.664L16.247 85.544V73.768L62.455 44.648Z" fill="#3E45CA"/>
<path d="M130.837 23.7091H122.691C118.193 23.7091 114.546 27.4315 114.546 31.9301V31.9301C114.546 37.6927 108.726 41.7447 103.375 39.6045L101.524 38.8641C97.4346 37.2283 92.7854 39.1398 91.0291 43.1792L86.7173 53.0964C85.1712 56.6525 86.5499 60.8024 89.9167 62.7263V62.7263C94.1741 65.1591 95.0479 70.9269 91.7022 74.5116L88.8741 77.5417C86.0852 80.5299 85.9427 85.1223 88.5412 88.2776L94.5168 95.5337C96.5778 98.0363 100.282 98.3838 102.772 96.3084V96.3084C106.212 93.4419 111.465 95.3483 112.266 99.7537L113.33 105.603C114.034 109.476 117.407 112.291 121.344 112.291H130.837" stroke="#3E45CA" stroke-width="11.2"/>
<path d="M126.764 23.7091H134.909C139.408 23.7091 143.055 27.4315 143.055 31.9301V31.9301C143.055 37.6927 148.875 41.7447 154.225 39.6045L156.076 38.8641C160.166 37.2283 164.815 39.1398 166.571 43.1792L170.883 53.0964C172.429 56.6525 171.051 60.8024 167.684 62.7263V62.7263C163.427 65.1591 162.553 70.9269 165.898 74.5116L168.726 77.5417C171.515 80.5299 171.658 85.1223 169.059 88.2776L163.084 95.5337C161.023 98.0363 157.319 98.3838 154.829 96.3084V96.3084C151.389 93.4419 146.135 95.3483 145.334 99.7537L144.271 105.603C143.567 109.476 140.193 112.291 136.257 112.291H126.764" stroke="#3E45CA" stroke-width="11.2"/>
<circle cx="129" cy="67.7091" r="12.7273" stroke="#3E45CA" stroke-width="7.12727"/>
<path d="M178.393 131.176L210.265 10.6H226.969L195.097 131.176H178.393ZM248.406 114.664L241.75 103.4L287.254 75.624V83.688L241.75 55.912L248.406 44.648L294.614 73.768V85.544L248.406 114.664Z" fill="#3E45CA"/>
</svg>
