<svg width="211" height="34" viewBox="0 0 211 34" fill="none" xmlns="http://www.w3.org/2000/svg">
<path d="M15.6138 10.912L17.2938 13.728L5.90175 20.672V18.656L17.2938 25.6L15.6138 28.416L4.06175 21.136V18.192L15.6138 10.912Z" fill="#3E45CA"/>
<path d="M32.709 5.92725H30.6726C29.548 5.92725 28.6363 6.85784 28.6363 7.98249V7.98249C28.6363 9.42315 27.1812 10.4361 25.8436 9.9011L25.3809 9.716C24.3585 9.30704 23.1962 9.78492 22.7571 10.7948L21.6791 13.2741C21.2926 14.1631 21.6373 15.2006 22.479 15.6815V15.6815C23.5433 16.2897 23.7618 17.7317 22.9254 18.6279L22.2184 19.3854C21.5211 20.1324 21.4855 21.2806 22.1351 22.0694L23.629 23.8834C24.1443 24.509 25.0702 24.5959 25.6928 24.0771V24.0771C26.5528 23.3604 27.8661 23.837 28.0664 24.9384L28.3322 26.4006C28.5083 27.3689 29.3516 28.0727 30.3358 28.0727H32.709" stroke="#3E45CA" stroke-width="2.8"/>
<path d="M31.6909 5.92725H33.7273C34.8519 5.92725 35.7636 6.85784 35.7636 7.98249V7.98249C35.7636 9.42315 37.2187 10.4361 38.5563 9.9011L39.019 9.716C40.0414 9.30704 41.2037 9.78492 41.6428 10.7948L42.7208 13.2741C43.1073 14.1631 42.7626 15.2006 41.9209 15.6815V15.6815C40.8566 16.2897 40.6381 17.7317 41.4745 18.6279L42.1815 19.3854C42.8788 20.1324 42.9144 21.2806 42.2648 22.0694L40.7709 23.8834C40.2556 24.509 39.3297 24.5959 38.7071 24.0771V24.0771C37.8471 23.3604 36.5338 23.837 36.3335 24.9384L36.0677 26.4006C35.8916 27.3689 35.0483 28.0727 34.0641 28.0727H31.6909" stroke="#3E45CA" stroke-width="2.8"/>
<circle cx="32" cy="16.9272" r="3.18182" stroke="#3E45CA" stroke-width="1.78182"/>
<path d="M44.598 32.544L52.566 2.4H56.742L48.774 32.544H44.598ZM62.1013 28.416L60.4373 25.6L71.8133 18.656V20.672L60.4373 13.728L62.1013 10.912L73.6533 18.192V21.136L62.1013 28.416Z" fill="#3E45CA"/>
<path d="M87.7426 31V3H105.023V7.22H93.4626V16.9H103.103V21.12H93.4626V31H87.7426ZM131.185 31H125.365L123.965 24.64H115.845L114.445 31H108.625L115.365 3H124.445L131.185 31ZM119.665 7.22L116.685 20.42H123.125L120.145 7.22H119.665ZM146.51 31.44C145.377 31.44 144.237 31.2933 143.09 31C141.944 30.6933 140.857 30.2 139.83 29.52C138.804 28.84 137.89 27.9467 137.09 26.84C136.304 25.7333 135.677 24.3733 135.21 22.76C134.757 21.1467 134.53 19.2533 134.53 17.08C134.53 14.9067 134.757 13.02 135.21 11.42C135.677 9.80667 136.31 8.44667 137.11 7.34C137.924 6.23333 138.844 5.34667 139.87 4.68C140.897 4 141.984 3.51333 143.13 3.22C144.277 2.91333 145.424 2.76 146.57 2.76C147.757 2.76 148.864 2.92 149.89 3.24C150.917 3.54667 151.85 4 152.69 4.6C153.53 5.2 154.27 5.92666 154.91 6.78C155.55 7.62 156.07 8.58 156.47 9.66L151.47 12.16C151.31 11.6133 151.09 11.0467 150.81 10.46C150.544 9.86 150.217 9.30667 149.83 8.8C149.444 8.28 148.977 7.86 148.43 7.54C147.897 7.22 147.27 7.06 146.55 7.06C145.777 7.06 145.017 7.24667 144.27 7.62C143.537 7.98 142.877 8.56 142.29 9.36C141.704 10.16 141.237 11.2 140.89 12.48C140.544 13.7467 140.37 15.28 140.37 17.08C140.37 18.88 140.544 20.42 140.89 21.7C141.237 22.98 141.697 24.02 142.27 24.82C142.857 25.62 143.517 26.2067 144.25 26.58C144.984 26.9533 145.737 27.14 146.51 27.14C147.23 27.14 147.864 26.98 148.41 26.66C148.957 26.34 149.424 25.9267 149.81 25.42C150.197 24.9 150.524 24.3467 150.79 23.76C151.07 23.1733 151.297 22.62 151.47 22.1L156.47 24.62C156.07 25.66 155.55 26.6 154.91 27.44C154.27 28.28 153.524 29 152.67 29.6C151.83 30.2 150.89 30.66 149.85 30.98C148.824 31.2867 147.71 31.44 146.51 31.44ZM162.436 31V3H180.976V7.22H168.156V15.14H179.496V19.34H168.156V26.78H180.976V31H162.436ZM197.202 31.44C195.802 31.44 194.475 31.2467 193.222 30.86C191.982 30.4733 190.882 29.8533 189.922 29C188.962 28.1333 188.202 27 187.642 25.6C187.095 24.1867 186.822 22.4667 186.822 20.44V3H192.542V20.18C192.542 21.82 192.722 23.14 193.082 24.14C193.455 25.14 193.988 25.8667 194.682 26.32C195.388 26.7733 196.228 27 197.202 27C198.188 27 199.022 26.7733 199.702 26.32C200.395 25.8667 200.922 25.14 201.282 24.14C201.642 23.14 201.822 21.82 201.822 20.18V3H207.542V20.44C207.542 22.4667 207.268 24.1867 206.722 25.6C206.175 27 205.422 28.1333 204.462 29C203.515 29.8533 202.422 30.4733 201.182 30.86C199.942 31.2467 198.615 31.44 197.202 31.44Z" fill="#171717"/>
</svg>
